<?xml version="1.0" encoding="UTF-8" standalone="no"?>
<!-- Uploaded to: SVG Repo, www.svgrepo.com, Generator: SVG Repo Mixer Tools -->

<svg
   width="800"
   height="800"
   viewBox="0 0 16 16"
   fill="none"
   version="1.1"
   id="svg2"
   xmlns="http://www.w3.org/2000/svg"
   xmlns:svg="http://www.w3.org/2000/svg">
  <defs
     id="defs2" />
  <path
     fill="#1877F2"
     d="M 15,8 A 7,7 0 0 0 8,1 7,7 0 0 0 6.906,14.915 V 10.023 H 5.13 V 8 H 6.907 V 6.458 c 0,-1.754 1.045,-2.724 2.644,-2.724 0.766,0 1.567,0.137 1.567,0.137 v 1.723 h -0.883 c -0.87,0 -1.14,0.54 -1.14,1.093 V 8 h 1.941 l -0.31,2.023 H 9.094 v 4.892 A 7.001,7.001 0 0 0 15,8 Z"
     id="path1"
     style="fill:#ffffff" />
  <path
     fill="#ffffff"
     d="M 10.725,10.023 11.035,8 H 9.094 V 6.687 c 0,-0.553 0.27,-1.093 1.14,-1.093 h 0.883 V 3.87 c 0,0 -0.801,-0.137 -1.567,-0.137 -1.6,0 -2.644,0.97 -2.644,2.724 V 8 H 5.13 v 2.023 h 1.777 v 4.892 a 7.037,7.037 0 0 0 2.188,0 v -4.892 z"
     id="path2" />
  <path
     style="fill:#0000ff;stroke-width:0.0196802"
     d="m 7.5375154,14.974266 c -0.1298894,-0.009 -0.3202952,-0.02767 -0.4231242,-0.04145 l -0.186962,-0.02506 -0.005,-2.445264 -0.005,-2.445265 H 6.0319034 5.1463714 V 9.0135302 8.00984 h 0.884316 0.8843158 l 0.00762,-0.9987698 c 0.00624,-0.8177606 0.013497,-1.0309768 0.040036,-1.1764788 0.2100184,-1.1514686 0.9071062,-1.852014 2.040794,-2.0509162 0.365672,-0.064156 1.2330198,-0.034591 1.8943228,0.06457 0.105464,0.015814 0.196239,0.028753 0.201723,0.028753 0.0055,0 0.01,0.3852398 0.01,0.8560886 v 0.8560884 l -0.546125,3.42e-4 C 9.9535676,5.5898998 9.8390182,5.6044574 9.6187804,5.7095622 9.4553484,5.7875574 9.2873636,5.9505454 9.2128288,6.1034386 9.0986394,6.3376744 9.0961178,6.3601012 9.0875486,7.2177124 l -0.00791,0.7921278 h 0.9716314 0.971631 l -0.153085,0.99877 c -0.0842,0.5493236 -0.153279,1.0009838 -0.153515,1.0036898 -2.36e-4,0.0027 -0.367957,0.0049 -0.8171572,0.0049 h -0.816733 v 2.446642 2.446641 l -0.2106024,0.02448 c -0.5069418,0.05893 -0.8891122,0.07018 -1.334293,0.03928 z"
     id="path3" />
  <path
     style="fill:#1877f2;stroke-width:0.0196802"
     d="m 7.5178352,14.965227 c -0.032472,-0.0044 -0.1564576,-0.01766 -0.2755228,-0.0294 -0.1190652,-0.01174 -0.2364084,-0.02603 -0.2607626,-0.03176 l -0.04428,-0.01042 v -2.28764 c 0,-1.258202 -0.00573,-2.355397 -0.012728,-2.438211 L 6.9118136,10.01722 H 6.0290926 5.1463714 V 9.0135302 8.00984 H 6.028919 6.9114666 L 6.924296,7.7293972 C 6.931356,7.5751538 6.937456,7.1655596 6.93786,6.8191882 6.938706,6.0937396 6.954671,5.8722612 7.02572,5.6002844 7.3013762,4.5450764 8.0600494,3.8979032 9.1642604,3.7760394 9.511109,3.7377604 10.287352,3.7746994 10.904636,3.8588624 l 0.178929,0.024395 0.01295,0.6200062 c 0.0071,0.3410034 0.01295,0.7240844 0.01295,0.8512914 v 0.2312852 l -0.624846,0.00794 C 9.9017456,5.6011868 9.8519534,5.6046094 9.74327,5.6447402 9.5711708,5.7082868 9.4789344,5.768519 9.3554758,5.897977 9.1535334,6.1097328 9.103049,6.261264 9.0911816,6.691267 c -0.00463,0.1677736 -0.012145,0.5330872 -0.0167,0.811808 L 9.066201,8.00984 h 0.974895 0.974894 l -0.01056,0.054121 c -0.0058,0.029766 -0.07471,0.4756296 -0.153105,0.9908074 l -0.142541,0.9366868 -0.425,0.012834 c -0.23375,0.0071 -0.5999082,0.01286 -0.8136842,0.01288 l -0.388684,4e-5 v 2.439453 2.439452 l -0.063961,0.0103 c -0.243121,0.03915 -0.4828854,0.05472 -0.9298894,0.06038 -0.2814268,0.0036 -0.5382532,0.0029 -0.5707256,-0.0016 z"
     id="path4" />
</svg>
