<?xml version="1.0" encoding="UTF-8" standalone="no"?>
<!-- Created with Inkscape (http://www.inkscape.org/) -->

<svg
   width="164.77394mm"
   height="155.75241mm"
   viewBox="0 0 164.77394 155.75241"
   version="1.1"
   id="svg1"
   sodipodi:docname="logo.svg"
   inkscape:version="1.3.2 (091e20e, 2023-11-25, custom)"
   xmlns:inkscape="http://www.inkscape.org/namespaces/inkscape"
   xmlns:sodipodi="http://sodipodi.sourceforge.net/DTD/sodipodi-0.dtd"
   xmlns="http://www.w3.org/2000/svg"
   xmlns:svg="http://www.w3.org/2000/svg">
  <sodipodi:namedview
     id="namedview1"
     pagecolor="#505050"
     bordercolor="#eeeeee"
     borderopacity="1"
     inkscape:showpageshadow="0"
     inkscape:pageopacity="0"
     inkscape:pagecheckerboard="0"
     inkscape:deskcolor="#505050"
     inkscape:document-units="mm"
     inkscape:zoom="1.3810781"
     inkscape:cx="311.71299"
     inkscape:cy="294.33526"
     inkscape:window-width="1920"
     inkscape:window-height="1009"
     inkscape:window-x="-8"
     inkscape:window-y="-8"
     inkscape:window-maximized="1"
     inkscape:current-layer="svg1" />
  <defs
     id="defs1" />
  <g
     id="g2"
     style="display:inline"
     transform="translate(-4.1862532,-26.414071)">
    <g
       id="g1"
       transform="matrix(0.83944955,0,0,0.82062781,-3.4352906,7.058907)"
       style="display:inline">
      <ellipse
         style="fill:#000080;stroke-width:0.634026"
         id="ellipse1"
         cx="107.22326"
         cy="118.48412"
         rx="98.144043"
         ry="94.898323" />
    </g>
    <path
       id="text1"
       style="font-style:normal;font-variant:normal;font-weight:bold;font-stretch:normal;font-size:50.8px;font-family:'Palatino Linotype';-inkscape-font-specification:'Palatino Linotype Bold';display:inline;fill:#ffffff;stroke-width:0.634026"
       d="m 46.418374,47.669628 -0.550233,0.577897 c 0.44834,2.966544 0.692888,5.836775 0.733645,8.610686 l 0.122267,9.882064 0.672505,0.577897 H 51.2482 l 0.611375,-0.577897 c 0.08151,-2.157487 0.264928,-4.257188 0.550233,-6.299092 0.244533,-1.849275 0.550234,-3.082127 0.917055,-3.698552 0.244558,-0.346737 0.692891,-0.635689 1.345018,-0.866849 1.222741,-0.42379 5.481973,-0.635687 12.777669,-0.635687 h 8.742612 c 0.122266,1.194324 0.183412,6.549527 0.183412,16.065576 v 32.824639 c 0,9.16929 -0.264928,15.14094 -0.794784,17.91483 -0.203777,1.11729 -0.896677,1.83001 -2.078663,2.13822 -0.611371,0.15414 -2.995723,0.34674 -7.153046,0.57792 l -0.611372,0.5779 v 3.92969 l 0.550233,0.52013 c 3.831258,-0.23121 10.10802,-0.34674 18.830247,-0.34674 8.518437,0 14.795197,0.11535 18.830241,0.34674 l 0.61138,-0.57793 v -0.0102 c -8.694522,-1.46992 -14.539091,-3.24877 -17.53236,-5.33712 -5.176274,-3.62151 -7.764418,-9.22713 -7.764418,-16.81686 0,-7.897921 2.812314,-14.197031 8.436928,-18.897267 1.849486,-1.532691 3.923658,-2.826429 6.221982,-3.882756 V 71.304854 c 0,-9.361944 0.04076,-14.717147 0.122266,-16.065576 h 8.192382 c 6.84735,0 10.67862,0.05778 11.49378,0.173357 2.11942,0.269685 3.42368,1.175062 3.91278,2.716121 0.24455,0.847585 0.46871,3.737084 0.67251,8.668477 l 0.6725,0.52011 h 3.85165 l 0.61137,-0.577897 0.12227,-9.650904 c 0.0408,-3.043596 0.30569,-5.990885 0.79478,-8.841846 l -0.61137,-0.577898 c -3.58671,0.385265 -12.34972,0.577898 -26.288977,0.577898 h -24.76055 c -15.121242,0 -23.884252,-0.192625 -26.288979,-0.577898 z m 47.503578,36.597823 v 19.862859 c 0,9.16929 0.264928,15.14094 0.794784,17.91483 0.203777,1.11729 0.896677,1.83001 2.07866,2.13822 0.611372,0.15414 2.995726,0.34674 7.153044,0.57792 l 0.61138,0.5779 v 3.86227 c 1.2502,0.21131 2.55869,0.41664 3.92678,0.61524 4.80946,0.69345 8.29428,1.56031 10.45446,2.60053 4.36112,2.11895 6.54169,5.64415 6.54169,10.57553 0,2.92803 -0.7948,5.75973 -2.38437,8.49511 -3.09761,5.31666 -8.68148,7.975 -16.75158,7.975 -4.27959,0 -8.396168,-0.92464 -12.349702,-2.77392 -3.7905,-1.77221 -6.419404,-3.89119 -7.886695,-6.35688 -0.489095,-3.54444 -0.733646,-6.3954 -0.733646,-8.55289 v -1.32918 l -0.550233,-0.57787 h -3.912776 l -0.611372,0.57787 c 0,8.16764 -0.570616,14.46674 -1.711844,18.89729 l 0.733648,1.27138 c 8.233129,3.69855 16.629315,5.54781 25.18851,5.54781 6.88812,0 12.81843,-0.96315 17.79091,-2.8895 5.42082,-2.08041 9.80235,-5.25885 13.14449,-9.53531 3.83127,-4.85433 5.7469,-10.45997 5.7469,-16.81685 0,-4.89284 -1.12087,-8.97667 -3.36254,-12.25145 -2.07868,-3.00505 -5.17629,-5.2396 -9.29287,-6.70361 -2.0379,-0.73199 -4.25922,-1.29064 -6.66393,-1.67589 -3.91279,-0.65495 -6.29714,-1.04022 -7.15305,-1.1558 -8.19238,-1.23285 -13.38905,-2.52349 -15.58998,-3.87191 -3.38292,-2.08044 -5.074386,-5.33594 -5.074386,-9.76649 0,-4.083813 1.487674,-7.416364 4.463014,-9.997643 3.179132,-2.735384 7.499492,-4.103079 12.961072,-4.103079 3.62747,0 7.1123,0.654953 10.45446,1.964854 3.13836,1.271375 5.33931,2.812439 6.6028,4.623191 0.28532,1.38696 0.48912,4.392039 0.61138,9.015217 l 0.61136,0.5779 h 3.85165 l 0.67251,-0.5779 c 0.2039,-6.433923 0.79479,-11.943246 1.773,-16.527899 l -0.42797,-1.386957 c -5.86916,-2.889491 -13.57247,-4.334238 -23.10986,-4.334238 -7.30349,0 -13.503224,1.171966 -18.599698,3.514345 z" />
  </g>
</svg>
